<svg version="1.1" id="Layer_1" xmlns="http://www.w3.org/2000/svg" xmlns:xlink="http://www.w3.org/1999/xlink" x="0px" y="0px"
	 width="100%" viewBox="0 0 1024 656" enable-background="new 0 0 1024 656" xml:space="preserve">
<path fill="#ffff" opacity="1.000000" stroke="none" 
	d="
M241.587555,388.588135 
	C240.368515,389.191498 239.484619,389.657745 238.576935,390.071869 
	C237.485703,390.569794 236.341278,390.933990 235.311142,390.001282 
	C234.272659,389.061066 234.424622,387.838226 234.988770,386.781158 
	C242.828064,372.092285 247.245529,355.724152 259.991943,343.506470 
	C281.135529,323.239868 301.274048,301.924805 321.840637,281.056000 
	C326.791290,276.032593 329.485809,275.959686 334.438477,280.759064 
	C337.307648,283.539429 340.147736,286.351746 342.938660,289.210449 
	C347.496429,293.878876 347.444275,296.449066 342.539703,301.442993 
	C323.992554,320.328064 304.747650,338.582458 287.062927,358.241486 
	C274.348083,372.375824 258.602173,380.833221 241.587555,388.588135 
M307.428986,330.929382 
	C313.560364,324.695801 319.691711,318.462189 325.105438,312.958221 
	C320.304840,307.734375 316.068634,303.124634 312.525970,299.269592 
	C295.135895,315.884552 277.855957,332.394287 260.346405,349.123383 
	C262.489136,351.418152 262.268921,353.799957 262.647034,356.313507 
	C267.223633,355.817261 269.303070,357.747681 267.800903,363.664185 
	C271.134888,360.848633 273.143005,363.004150 274.238556,362.249146 
	C285.136017,351.976532 296.033508,341.703918 307.428986,330.929382 
M335.830688,302.207733 
	C343.457947,293.844574 343.147430,295.887421 335.607971,288.099609 
	C334.339935,286.789825 332.987183,285.560089 331.751373,284.221558 
	C329.308929,281.576050 326.973541,281.661102 324.587250,284.297821 
	C323.476379,285.525299 322.307129,286.710541 321.074982,287.815247 
	C319.063446,289.618744 318.936768,291.309845 320.945892,293.252380 
	C324.162476,296.362335 327.334473,299.523865 330.405548,302.776672 
	C332.209930,304.687866 333.749146,304.552185 335.830688,302.207733 
M248.644196,368.052094 
	C248.356659,368.650787 248.106796,369.271301 247.775101,369.844421 
	C246.308594,372.378143 246.033234,374.537720 248.497238,376.907684 
	C251.002884,379.317627 252.994217,377.960419 255.205200,376.867950 
	C258.479675,375.250000 261.763977,373.649719 265.002167,371.961456 
	C266.541321,371.158997 268.478699,370.561066 268.036865,367.618134 
	C262.347260,369.931519 261.531433,366.717285 262.680847,361.642151 
	C256.241760,364.465332 256.634094,359.641907 255.786758,355.923615 
	C251.769714,359.275970 251.136124,363.789246 248.644196,368.052094 
M317.446014,297.444550 
	C320.851807,301.320587 324.257599,305.196655 327.663391,309.072693 
	C327.794159,308.927887 327.924927,308.783081 328.055725,308.638245 
	C323.828918,304.406677 319.602112,300.175079 315.375305,295.943481 
	C315.529327,295.788910 315.683350,295.634338 315.837341,295.479736 
	C316.237427,295.987061 316.637482,296.494354 317.446014,297.444550 
z"/>
<path fill="#ffff" opacity="1.000000" stroke="none" 
	d="
M398.002869,310.691345 
	C407.818451,310.693390 417.139709,310.880615 426.449585,310.635742 
	C433.100616,310.460785 438.773285,311.894409 441.970795,318.252289 
	C444.976562,324.228851 443.205658,329.533630 438.980682,334.044830 
	C439.073639,334.619781 439.014160,335.033173 439.193176,335.244507 
	C443.159760,339.926697 444.907990,345.161560 442.024506,350.900085 
	C439.075775,356.768494 433.805450,358.499512 427.438477,358.405060 
	C413.966003,358.205200 400.486877,358.232910 387.013916,358.417023 
	C382.926819,358.472870 381.465088,357.107819 381.531525,352.970673 
	C381.731812,340.496643 381.704315,328.016174 381.549835,315.540863 
	C381.503784,311.821808 382.909485,310.467255 386.525787,310.656494 
	C390.175690,310.847504 393.843628,310.694183 398.002869,310.691345 
M416.476837,353.093018 
	C420.140228,353.141998 423.806732,353.111725 427.466278,353.257477 
	C433.834625,353.511139 437.598602,350.898865 437.869080,345.898315 
	C438.170135,340.332794 434.852570,337.234039 428.290863,337.193573 
	C417.964111,337.129913 407.635345,337.079803 397.309814,337.211090 
	C384.693512,337.371521 386.556122,335.231476 386.280151,348.430481 
	C386.206635,351.949493 387.630859,353.137634 390.999512,353.092438 
	C399.159607,352.982849 407.322479,353.080536 416.476837,353.093018 
M423.426544,331.894012 
	C424.924133,331.894379 426.422089,331.915985 427.919281,331.891449 
	C434.716705,331.780121 438.011627,329.017120 437.890198,323.548492 
	C437.774323,318.329132 434.689331,315.996826 427.787048,315.989166 
	C417.470367,315.977722 407.153656,316.015472 396.836945,316.006653 
	C386.137054,315.997528 386.311035,315.985229 386.243469,326.842438 
	C386.218292,330.885223 387.706238,332.009064 391.497711,331.946136 
	C401.811554,331.774841 412.130157,331.890656 423.426544,331.894012 
z"/>
<path fill="#ffff" opacity="1.000000" stroke="none" 
	d="
M621.222900,331.582642 
	C620.570679,343.200226 626.302551,350.546082 638.294556,353.503876 
	C649.692566,356.315186 660.241028,354.946136 669.614502,346.709290 
	C667.583435,344.194092 665.277527,345.066010 663.299683,345.009308 
	C658.808655,344.880615 654.310120,345.031097 649.817322,344.938354 
	C647.980347,344.900421 645.779785,344.666687 645.676208,342.285797 
	C645.562134,339.665588 647.830505,339.744232 649.658386,339.732239 
	C656.816650,339.685272 663.975891,339.747284 671.133423,339.658447 
	C674.121033,339.621338 675.364014,340.955475 675.286316,343.876587 
	C675.202209,347.037476 675.335388,350.204498 675.234192,353.364380 
	C675.173767,355.250519 675.850403,357.738708 673.126709,358.319061 
	C670.224670,358.937439 670.457336,356.000244 669.131897,354.027618 
	C664.052063,357.121979 658.557922,359.323486 652.548462,359.880798 
	C640.702454,360.979431 630.023621,358.515869 621.549866,349.539642 
	C613.375000,340.880005 613.533020,328.371246 621.872314,319.884247 
	C634.510925,307.021729 658.892578,306.393463 672.077515,318.607941 
	C672.927124,319.395020 673.720154,320.266144 674.413086,321.192688 
	C675.056091,322.052460 675.148315,323.068207 674.422180,323.960846 
	C673.559875,325.020874 672.423767,325.212067 671.319641,324.457092 
	C670.089905,323.616241 668.973877,322.608124 667.814819,321.664856 
	C656.666382,312.591827 637.899109,312.744873 627.011719,322.044830 
	C624.171875,324.470581 622.029297,327.395233 621.222900,331.582642 
z"/>
<path fill="#ffff" opacity="1.000000" stroke="none" 
	d="
M713.828613,323.020416 
	C714.002686,308.781219 712.205994,310.813080 725.892395,310.704498 
	C740.387634,310.589508 754.884399,310.659698 769.380493,310.672089 
	C770.874573,310.673340 772.395386,310.688324 773.854431,310.960876 
	C775.096191,311.192871 775.866028,312.173065 775.810791,313.497375 
	C775.764221,314.613251 775.001404,315.409393 773.967529,315.589661 
	C772.340637,315.873291 770.671875,316.039673 769.020630,316.041107 
	C754.524597,316.053680 740.025635,316.174103 725.534119,315.907959 
	C720.869446,315.822266 718.942139,317.041138 719.161133,322.030121 
	C719.635681,332.843536 717.753662,331.821869 729.179504,331.861359 
	C742.342407,331.906891 755.505676,331.864258 768.668762,331.875427 
	C770.165344,331.876678 771.671143,331.892578 773.155579,332.056580 
	C774.593872,332.215485 775.812561,332.979431 775.805725,334.542480 
	C775.799072,336.064789 774.695251,336.931458 773.196960,337.059357 
	C771.706360,337.186584 770.203308,337.204285 768.705688,337.205048 
	C754.709473,337.212189 740.713196,337.196564 726.716980,337.206207 
	C719.233215,337.211334 719.237732,337.227875 719.252319,344.963989 
	C719.257996,347.963104 719.271545,350.962860 719.216980,353.961182 
	C719.182800,355.833099 719.075439,358.009460 716.609924,358.033203 
	C714.149048,358.056915 713.918457,355.845459 713.905151,354.007141 
	C713.831360,343.843781 713.845276,333.679810 713.828613,323.020416 
z"/>
<path fill="#ffff" opacity="1.000000" stroke="none" 
	d="
M545.620361,352.446838 
	C533.205811,342.662903 532.146484,323.613068 551.271301,313.991058 
	C564.802246,307.183411 578.433289,308.025604 590.981018,316.910645 
	C604.351257,326.378052 604.311096,343.400238 591.146301,353.112061 
	C578.115784,362.724762 560.192688,362.552826 545.620361,352.446838 
M587.079956,349.649292 
	C599.589600,339.863770 598.807800,327.220825 585.188293,319.059052 
	C574.879089,312.881073 558.962524,313.829407 549.279663,321.198608 
	C538.795227,329.177856 539.236206,342.441254 550.454224,349.454163 
	C562.246460,356.826080 574.349182,356.621826 587.079956,349.649292 
z"/>
<path fill="#ffff" opacity="1.000000" stroke="none" 
	d="
M514.735352,359.055420 
	C497.966797,359.055145 481.664062,358.924530 465.365448,359.126312 
	C460.608124,359.185211 458.877838,357.549072 458.975494,352.772186 
	C459.210052,341.299652 459.046204,329.819122 459.057312,318.341797 
	C459.058441,317.179504 459.068054,316.004852 459.230011,314.858002 
	C459.466583,313.182587 459.774261,311.340271 462.085449,311.569397 
	C464.009186,311.760132 464.286407,313.379272 464.316223,314.928101 
	C464.377045,318.087341 464.355957,321.248260 464.359344,324.408508 
	C464.367889,332.392761 464.568268,340.383728 464.295410,348.358459 
	C464.154938,352.464294 465.432281,353.884705 469.627197,353.823975 
	C484.261993,353.612152 498.901581,353.733368 513.539368,353.729828 
	C514.869995,353.729523 516.202698,353.698883 517.530823,353.759766 
	C519.367126,353.843964 521.640564,353.810577 521.722229,356.234253 
	C521.804626,358.680786 519.486023,358.707153 517.694153,358.952148 
	C516.874451,359.064209 516.033936,359.023346 514.735352,359.055420 
z"/>
<path fill="#ffff" opacity="1.000000" stroke="none" 
	d="
M818.674500,351.874451 
	C819.667542,345.609375 817.289734,341.412598 813.031372,337.486786 
	C806.068665,331.067780 799.569641,324.143005 792.937622,317.370331 
	C791.502258,315.904541 789.050171,314.126373 791.216064,311.993256 
	C793.407349,309.835114 795.097168,312.388458 796.550415,313.822021 
	C803.654175,320.829254 810.775574,327.822571 817.710999,334.994598 
	C820.217224,337.586365 821.943787,337.831329 824.578857,335.058655 
	C831.106873,328.189911 837.931519,321.603027 844.643921,314.909760 
	C845.585510,313.970886 846.525024,313.022430 847.538818,312.165131 
	C848.840393,311.064514 850.283691,310.803772 851.498413,312.220673 
	C852.590454,313.494507 851.957886,314.757751 850.974060,315.770477 
	C847.845642,318.990479 844.673523,322.168243 841.505615,325.349701 
	C838.102539,328.767273 834.945129,332.492828 831.212585,335.503937 
	C825.714111,339.939789 823.008484,345.151520 824.004272,352.320099 
	C824.320923,354.600037 824.665344,358.221466 821.246643,358.228607 
	C817.505066,358.236420 819.096069,354.538269 818.674500,351.874451 
z"/>
<path fill="#ffff" opacity="1.000000" stroke="none" 
	d="
M691.927734,354.353424 
	C691.897217,342.136017 691.889282,330.351227 691.886597,318.566437 
	C691.886353,317.404785 691.875610,316.240509 691.945923,315.082092 
	C692.051025,313.349243 692.390686,311.495941 694.507019,311.438171 
	C696.618896,311.380524 697.143005,313.133392 697.196838,314.922272 
	C697.261658,317.078369 697.259460,319.236908 697.258362,321.394409 
	C697.252869,332.349304 697.250000,343.304230 697.214539,354.259064 
	C697.209229,355.908325 697.318115,357.873322 695.148682,358.240356 
	C692.595398,358.672333 692.253418,356.655304 691.927734,354.353424 
z"/>
<path fill="#ffff" opacity="1.000000" stroke="none" 
	d="
M196.001221,365.314545 
	C190.835236,365.300049 186.168579,365.306610 181.502518,365.258209 
	C179.967285,365.242279 178.218231,365.079651 178.203766,363.081451 
	C178.189194,361.067719 179.995819,360.865997 181.486816,360.863098 
	C198.152466,360.830566 214.818253,360.839294 231.483902,360.877472 
	C233.012405,360.880981 234.800766,361.188507 234.767395,363.131226 
	C234.726059,365.537476 232.583679,365.263153 230.999939,365.270203 
	C219.500397,365.321533 208.000549,365.307556 196.001221,365.314545 
z"/>
<path fill="#ffff" opacity="1.000000" stroke="none" 
	d="
M185.154404,372.732941 
	C199.953049,372.733978 214.272598,372.730896 228.592133,372.740814 
	C229.922012,372.741760 231.261520,372.741699 232.578842,372.894745 
	C233.815414,373.038361 234.882355,373.639923 234.825073,375.078430 
	C234.768555,376.497742 233.667252,376.997955 232.435760,377.142303 
	C231.447189,377.258240 230.443466,377.282990 229.446457,377.283173 
	C214.294403,377.286163 199.142365,377.278778 183.990311,377.272064 
	C183.324371,377.271759 182.656265,377.285950 181.992920,377.239532 
	C180.312820,377.122070 178.248611,377.067719 178.323120,374.843506 
	C178.399750,372.555267 180.574905,372.876526 182.178574,372.751434 
	C183.006271,372.686859 183.842773,372.735138 185.154404,372.732941 
z"/>
<path fill="#ffff" opacity="1.000000" stroke="none" 
	d="
M222.976349,353.350281 
	C209.854919,353.349152 197.228699,353.349579 184.602493,353.341827 
	C183.274261,353.341003 181.943466,353.334686 180.618591,353.253632 
	C179.363327,353.176788 178.268555,352.686188 178.234268,351.253601 
	C178.198242,349.747894 179.483551,349.405487 180.615891,349.193970 
	C181.748962,348.982361 182.926254,348.941040 184.084305,348.939758 
	C199.036377,348.923248 213.988464,348.925995 228.940552,348.929321 
	C229.770554,348.929504 230.609344,348.910126 231.428635,349.017456 
	C232.899078,349.210022 234.727036,349.284515 234.748917,351.253632 
	C234.772079,353.338318 232.924210,353.284912 231.445480,353.318481 
	C228.788635,353.378784 226.129654,353.344330 222.976349,353.350281 
z"/>
<path fill="#ffff" opacity="1.000000" stroke="none" 
	d="
M182.417572,389.095703 
	C180.320724,388.889954 178.208130,388.892822 178.305740,386.673218 
	C178.407074,384.368988 180.614929,384.704437 182.192657,384.699036 
	C193.303772,384.661072 204.415176,384.664551 215.526276,384.707581 
	C217.109451,384.713715 219.326843,384.410065 219.334396,386.765564 
	C219.342911,389.421234 216.936417,389.075928 215.209198,389.084381 
	C204.429916,389.137146 193.650238,389.109253 182.417572,389.095703 
z"/>
</svg>